<svg xmlns="http://www.w3.org/2000/svg" width="22" height="22" viewBox="0 0 22 22">
  <g id="Group_391" data-name="Group 391" transform="translate(-677 -808.5)">
    <g id="Rectangle_1544" data-name="Rectangle 1544" transform="translate(679 810.5)" stroke="#000" stroke-width="1">
      <rect width="4" height="4" stroke="none"/>
      <rect x="0.5" y="0.5" width="3" height="3" fill="none"/>
    </g>
    <g id="Rectangle_1549" data-name="Rectangle 1549" transform="translate(691 822.5) rotate(180)" stroke="#000" stroke-width="1">
      <rect width="4" height="4" stroke="none"/>
      <rect x="0.5" y="0.5" width="3" height="3" fill="none"/>
    </g>
    <g id="Rectangle_1550" data-name="Rectangle 1550" transform="translate(695 826.5) rotate(180)" stroke="#000" stroke-width="1">
      <rect width="4" height="4" stroke="none"/>
      <rect x="0.5" y="0.5" width="3" height="3" fill="none"/>
    </g>
    <g id="Rectangle_1551" data-name="Rectangle 1551" transform="translate(699 830.5) rotate(180)" stroke="#000" stroke-width="1">
      <rect width="4" height="4" stroke="none"/>
      <rect x="0.5" y="0.5" width="3" height="3" fill="none"/>
    </g>
    <g id="Rectangle_1546" data-name="Rectangle 1546" transform="translate(683 808.5)" stroke="#000" stroke-width="1">
      <rect width="4" height="4" stroke="none"/>
      <rect x="0.5" y="0.5" width="3" height="3" fill="none"/>
    </g>
    <g id="Rectangle_1542" data-name="Rectangle 1542" transform="translate(677 814.5)" stroke="#000" stroke-width="1">
      <rect width="4" height="4" stroke="none"/>
      <rect x="0.5" y="0.5" width="3" height="3" fill="none"/>
    </g>
    <g id="Rectangle_1548" data-name="Rectangle 1548" transform="translate(693 818.5) rotate(180)" stroke="#000" stroke-width="1">
      <rect width="4" height="4" stroke="none"/>
      <rect x="0.5" y="0.5" width="3" height="3" fill="none"/>
    </g>
    <g id="Rectangle_1543" data-name="Rectangle 1543" transform="translate(679 818.5)" stroke="#000" stroke-width="1">
      <rect width="4" height="4" stroke="none"/>
      <rect x="0.5" y="0.5" width="3" height="3" fill="none"/>
    </g>
    <g id="Rectangle_1547" data-name="Rectangle 1547" transform="translate(691 814.5) rotate(180)" stroke="#000" stroke-width="1">
      <rect width="4" height="4" stroke="none"/>
      <rect x="0.5" y="0.5" width="3" height="3" fill="none"/>
    </g>
    <g id="Rectangle_1545" data-name="Rectangle 1545" transform="translate(683 820.5)" stroke="#000" stroke-width="1">
      <rect width="4" height="4" stroke="none"/>
      <rect x="0.5" y="0.5" width="3" height="3" fill="none"/>
    </g>
  </g>
</svg>
